<svg width="24" height="24" viewBox="0 0 24 24" fill="none" xmlns="http://www.w3.org/2000/svg">
<path d="M12 4C16.41 4 20 7.59 20 12C20 16.41 16.41 20 12 20C7.59 20 4 16.41 4 12C4 7.59 7.59 4 12 4ZM12 2C6.48 2 2 6.48 2 12C2 17.52 6.48 22 12 22C17.52 22 22 17.52 22 12C22 6.48 17.52 2 12 2Z" fill="#262626"/>
<path d="M13 16H11V18H13V16Z" fill="#262626"/>
<path d="M13 15H11C11 12.94 12.15 12.1 12.99 11.49C13.71 10.96 14 10.72 14 10C14 8.9 13.1 8 12 8C10.9 8 10 8.9 10 10H8C8 7.79 9.79 6 12 6C14.21 6 16 7.79 16 10C16 11.77 14.94 12.54 14.17 13.11C13.44 13.64 13 13.96 13 15Z" fill="#262626"/>
</svg>
